<svg xmlns="http://www.w3.org/2000/svg" xmlns:xlink="http://www.w3.org/1999/xlink" width="907" zoomAndPan="magnify" viewBox="0 0 681.12 595.50001" height="907" preserveAspectRatio="xMidYMid meet" version="1.2"><defs><clipPath id="1bc7bd2498"><path d="M 0 0.132812 L 679.371094 0.132812 L 679.371094 594.867188 L 0 594.867188 Z M 0 0.132812 "/></clipPath><clipPath id="d8050af3ef"><path d="M 494.382812 120.902344 L 654.953125 120.902344 L 654.953125 434.972656 L 494.382812 434.972656 Z M 494.382812 120.902344 "/></clipPath><clipPath id="8bc90fb5ff"><path d="M 24.480469 277.9375 L 180.351562 277.9375 L 180.351562 590.84375 L 24.480469 590.84375 Z M 24.480469 277.9375 "/></clipPath><clipPath id="2d8f0e9227"><path d="M 180 120.097656 L 495 120.097656 L 495 591 L 180 591 Z M 180 120.097656 "/></clipPath><clipPath id="39b2412394"><path d="M 494.382812 434.972656 L 494.382812 590.84375 L 337.054688 590.84375 L 284.753906 434.972656 L 232.28125 278.480469 L 232.074219 277.9375 L 180.351562 277.9375 L 180.351562 120.902344 L 336.722656 120.902344 L 442.121094 434.972656 Z M 494.382812 434.972656 "/></clipPath></defs><g id="ddfe0dcff0"><g clip-rule="nonzero" clip-path="url(#1bc7bd2498)"><path style=" stroke:none;fill-rule:nonzero;fill:#ffffff;fill-opacity:1;" d="M 0 0.132812 L 679.371094 0.132812 L 679.371094 679.507812 L 0 679.507812 Z M 0 0.132812 "/><path style=" stroke:none;fill-rule:nonzero;fill:#ffffff;fill-opacity:1;" d="M 0 0.132812 L 679.371094 0.132812 L 679.371094 679.507812 L 0 679.507812 Z M 0 0.132812 "/></g><g clip-rule="nonzero" clip-path="url(#d8050af3ef)"><path style=" stroke:none;fill-rule:nonzero;fill:#000514;fill-opacity:1;" d="M 3.695312 100.113281 L 675.050781 100.113281 L 675.050781 611.625 L 3.695312 611.625 Z M 3.695312 100.113281 "/></g><g clip-rule="nonzero" clip-path="url(#8bc90fb5ff)"><path style=" stroke:none;fill-rule:nonzero;fill:#000514;fill-opacity:1;" d="M 3.695312 100.113281 L 675.050781 100.113281 L 675.050781 611.625 L 3.695312 611.625 Z M 3.695312 100.113281 "/></g><g clip-rule="nonzero" clip-path="url(#2d8f0e9227)"><g clip-rule="nonzero" clip-path="url(#39b2412394)"><path style=" stroke:none;fill-rule:nonzero;fill:#000514;fill-opacity:1;" d="M 3.695312 100.113281 L 675.050781 100.113281 L 675.050781 611.625 L 3.695312 611.625 Z M 3.695312 100.113281 "/></g></g></g></svg>